<svg xmlns="http://www.w3.org/2000/svg" viewBox="0 0 504.72 33.68"><defs><style>.cls-1,.cls-2{fill:#fff;}.cls-2{fill-rule:evenodd;}</style></defs><title>Recurso 1</title><g id="Capa_2" data-name="Capa 2"><g id="Capa_1-2" data-name="Capa 1"><path class="cls-1" d="M26.14.47H19.56v19.8c0,1.72.14,4-.91,5.49-.95,1.29-3.19,1.77-4.72,1.77-1.86,0-3.91-.48-4.91-2.2C8.25,24,8.3,21.8,8.3,20.27V.47H0v19.8c0,4,.14,7.78,3.39,10.6,2.62,2.29,6.58,2.81,10,2.81s7.44-.81,10.06-3.43,2.67-6.39,2.67-10V.47Z"/><path class="cls-1" d="M31.39,33.21h7v-13a9,9,0,0,1,.81-4.3,3.38,3.38,0,0,1,3-1.81c3.53,0,3.2,3.63,3.2,6.11v13h7v-15c0-2.19,0-5.25-1.34-7.06a7.07,7.07,0,0,0-6-2.67c-3.53,0-5.53,1.48-7,4.58H38V9H31.39V33.21Z"/><path class="cls-2" d="M64.39,9h-7V33.21h7V9Zm0-9h-7V6.77h7V0Z"/><polygon class="cls-1" points="89.67 8.97 84.37 8.97 79.65 24.33 74.97 8.97 67.53 8.97 75.83 33.2 81.41 33.2 89.67 8.97 89.67 8.97"/><path class="cls-2" d="M114.38,22.28c.05-3.29-.47-6.73-2.48-9.49A11,11,0,0,0,103,8.49c-7.54,0-11.79,5.78-11.79,12.93s4.73,12.26,12,12.26c8.21,0,11-7.16,11-8.35l-6.49-.47c0,2.24-2.14,3.81-4.29,3.81-3.06,0-4.68-2.33-4.68-5.2l0-1.19Zm-15.6-4.15c.24-2.77,1.43-5.06,4.53-5.06s3.92,2.43,4.06,5.06Z"/><path class="cls-1" d="M118.62,9V33.21h7V24c0-4.29.67-8.64,6-8.35v-7l-1.19-.1c-3-.24-4.48,2.43-5.2,5h-.1V9Z"/><path class="cls-1" d="M154.06,14.84c-1.67-4.53-4.77-6.35-9.54-6.35-5.15,0-10.35,2.15-10.35,8.11a6.85,6.85,0,0,0,4.77,6.54,51,51,0,0,0,7.2,1.43c1.29.14,2.72.43,2.72,2.05,0,1.81-2.91,2.29-4.25,2.29-2.24,0-4.86-.76-5.34-3.24l-6.06.85c1.29,5.44,6,7.16,11.07,7.16a13,13,0,0,0,7.54-2,7.6,7.6,0,0,0,3.24-6.25c0-10.93-14.55-5.77-14.55-10.3,0-1.77,2.2-2.16,3.63-2.16,2.29,0,4.1,1,4.72,3.25l5.2-1.38Z"/><path class="cls-2" d="M166.23,9h-7V33.21h7V9Zm0-9h-7V6.77h7V0Z"/><path class="cls-2" d="M192.37,33.21V.47h-7V11.54a6.53,6.53,0,0,0-6.06-3c-7.06,0-8.87,7.11-8.87,12.88s1.91,12.31,8.73,12.31c3.1,0,5.1-1.67,6.44-4.25h.1v3.78Zm-7-10.12a7.71,7.71,0,0,1-.62,3.58,3.58,3.58,0,0,1-3,2c-3.49,0-3.87-4.44-3.87-7.07,0-2.91.15-8.16,4.15-8.16,3.2,0,3.39,4,3.39,6.35v3.34Z"/><path class="cls-2" d="M218.83,33.21a11.76,11.76,0,0,1-.47-3.63V18.27c0-2.91.23-5.58-2.25-7.58-2-1.63-5.2-2.2-7.68-2.2-5.1,0-10.83,1.72-11.54,7.59l6.63.62c0-2.39,1.95-3.53,4.2-3.53a3.65,3.65,0,0,1,2.86,1.14,5,5,0,0,1,.62,3.2v.57c-3,.29-6.82.48-9.59,1.53-3.2,1.19-5.44,3.62-5.44,7.2,0,4.58,3.34,6.87,7.63,6.87,3.63,0,5.73-1.38,7.73-4.25a14.67,14.67,0,0,0,.34,3.78ZM211.2,22.57c0,1.72.05,3.15-1,4.67a4.22,4.22,0,0,1-3.52,2,2.94,2.94,0,0,1-3.11-3.2c0-3.53,4.92-4.15,7.59-4.44v1Z"/><path class="cls-2" d="M243.87,33.21V.47h-7V11.54a6.53,6.53,0,0,0-6.06-3c-7.07,0-8.88,7.11-8.88,12.88s1.91,12.31,8.73,12.31c3.1,0,5.11-1.67,6.44-4.25h.1v3.78Zm-7-10.12a7.71,7.71,0,0,1-.62,3.58,3.61,3.61,0,0,1-3.06,2c-3.48,0-3.86-4.44-3.86-7.07,0-2.91.14-8.16,4.15-8.16,3.19,0,3.39,4,3.39,6.35v3.34Z"/><path class="cls-2" d="M269.86,22.71a7.88,7.88,0,0,1-1.43,5,6.72,6.72,0,0,1-5.35,2.91c-5.19,0-6.25-6-6.25-9.92a12.46,12.46,0,0,1,1.44-6.3,5.73,5.73,0,0,1,4.91-3A6.7,6.7,0,0,1,268.62,14a8.21,8.21,0,0,1,1.24,4.81v3.87Zm0-10.45a8.21,8.21,0,0,0-7-3.91c-7,0-10,6.68-10,12.74a15.18,15.18,0,0,0,2.29,8.49,8.62,8.62,0,0,0,7.39,4.1,8,8,0,0,0,7.59-4.77h.09v4.3h3.39V.47h-3.72V12.26Z"/><path class="cls-2" d="M296.42,25.86a6.67,6.67,0,0,1-6.49,4.67,7,7,0,0,1-6.2-3.67,11.66,11.66,0,0,1-1-5.49h17.6c.2-6.72-3.05-13-10.59-13-7.25,0-11.21,6.06-11.21,12.74s3.77,12.59,11.12,12.59A10.57,10.57,0,0,0,300,26.57l-3.53-.71Zm-13.5-7.25c.14-3.82,2.77-7.4,6.82-7.4,4.3,0,6.54,3.39,6.49,7.4Z"/><polygon class="cls-1" points="330.81 0.47 324.37 0.47 317.6 23.86 311.01 0.47 302.85 0.47 312.68 33.2 320.93 33.2 330.81 0.47 330.81 0.47"/><path class="cls-2" d="M352.85,33.21a11.48,11.48,0,0,1-.48-3.63V18.27c0-2.91.24-5.58-2.24-7.58-2-1.63-5.2-2.2-7.68-2.2-5.11,0-10.84,1.72-11.55,7.59l6.63.62c0-2.39,2-3.53,4.2-3.53a3.64,3.64,0,0,1,2.86,1.14,5,5,0,0,1,.62,3.2v.57c-3,.29-6.82.48-9.59,1.53-3.2,1.19-5.44,3.62-5.44,7.2,0,4.58,3.34,6.87,7.64,6.87,3.62,0,5.72-1.38,7.73-4.25a14.23,14.23,0,0,0,.33,3.78Zm-7.64-10.64c0,1.72.05,3.15-.95,4.67a4.23,4.23,0,0,1-3.53,2,2.93,2.93,0,0,1-3.1-3.2c0-3.53,4.91-4.15,7.58-4.44v1Z"/><polygon class="cls-1" points="357.13 33.2 364.14 33.2 364.14 0.47 357.13 0.47 357.13 33.2 357.13 33.2"/><polygon class="cls-1" points="369.52 33.2 376.54 33.2 376.54 0.47 369.52 0.47 369.52 33.2 369.52 33.2"/><path class="cls-2" d="M403.39,33.21a11.48,11.48,0,0,1-.48-3.63V18.27c0-2.91.24-5.58-2.24-7.58-2-1.63-5.2-2.2-7.68-2.2-5.11,0-10.83,1.72-11.55,7.59l6.63.62c0-2.39,2-3.53,4.2-3.53a3.64,3.64,0,0,1,2.86,1.14,5,5,0,0,1,.62,3.2v.57c-2.95.29-6.82.48-9.59,1.53-3.19,1.19-5.44,3.62-5.44,7.2,0,4.58,3.34,6.87,7.64,6.87,3.63,0,5.72-1.38,7.73-4.25a14.66,14.66,0,0,0,.33,3.78Zm-7.64-10.64c0,1.72.05,3.15-.95,4.67a4.23,4.23,0,0,1-3.53,2,2.93,2.93,0,0,1-3.1-3.2c0-3.53,4.91-4.15,7.58-4.44v1Z"/><path class="cls-2" d="M428.42,33.21V.47h-7V11.54a6.53,6.53,0,0,0-6.06-3c-7.06,0-8.87,7.11-8.87,12.88s1.91,12.31,8.73,12.31c3.1,0,5.1-1.67,6.44-4.25h.09v3.78Zm-7-10.12a7.71,7.71,0,0,1-.62,3.58,3.58,3.58,0,0,1-3.05,2c-3.49,0-3.87-4.44-3.87-7.07,0-2.91.15-8.16,4.15-8.16,3.2,0,3.39,4,3.39,6.35v3.34Z"/><path class="cls-2" d="M443.58,8.49c-7.39,0-11.49,5.49-11.49,12.55s4.05,12.64,11.49,12.64c7.16,0,11.69-5.48,11.69-12.4,0-7.16-4.1-12.79-11.69-12.79Zm.05,4.63A3.17,3.17,0,0,1,447,15.31a18.28,18.28,0,0,1,.76,6c0,2.91-.19,7.68-4.15,7.68s-4-5.92-4-8.69.24-7.2,4-7.2Z"/><polygon class="cls-1" points="459.17 33.2 466.19 33.2 466.19 0.47 459.17 0.47 459.17 33.2 459.17 33.2"/><path class="cls-2" d="M478.58,9h-7V33.21h7V9Zm0-9h-7V6.77h7V0Z"/><path class="cls-2" d="M504.72,33.21V.47h-7V11.54a6.52,6.52,0,0,0-6.06-3c-7.06,0-8.87,7.11-8.87,12.88s1.91,12.31,8.73,12.31c3.1,0,5.11-1.67,6.44-4.25h.1v3.78Zm-7-10.12a7.59,7.59,0,0,1-.62,3.58,3.58,3.58,0,0,1-3.05,2c-3.48,0-3.86-4.44-3.86-7.07,0-2.91.14-8.16,4.15-8.16,3.19,0,3.38,4,3.38,6.35v3.34Z"/></g></g></svg>